<?xml version="1.0" encoding="utf-8"?>
<!-- Generator: Adobe Illustrator 22.0.1, SVG Export Plug-In . SVG Version: 6.00 Build 0)  -->
<svg version="1.1" id="Layer_1" xmlns="http://www.w3.org/2000/svg" xmlns:xlink="http://www.w3.org/1999/xlink" x="0px" y="0px"
	 viewBox="0 0 290 100.5" style="enable-background:new 0 0 290 100.5;" xml:space="preserve">
<style type="text/css">
	.st0{fill:#7AC4FF;}
	.st1{fill:#FFFFFF;}
	.st2{fill:#292F33;}
</style>
<rect x="682.2" y="-47.3" class="st0" width="100" height="100"/>
<g>
	<g>
		<path class="st1" d="M755.7,33L746-9.8l14.3,8.7l5.4,25.8L755.7,33z M710,36.1l-8.3-10l43.1-9.7l-9,14.3L710,36.1z M708.6-27.9
			l9.9,43.1l-14.6-9l-5.4-25.8L708.6-27.9z M754.3-30.7l8.3,10l-43,9.7l8.9-14.3L754.3-30.7z M760.8-5.5l-12.7-7.7l15.4-3.5
			L760.8-5.5z M712.6-28.8l11.4,2.9l-7.9,12.6L712.6-28.8z M723.2,17.1l-5.4-23.5l23.6-5.3l5.3,23.5L723.2,17.1z M703.5,10.7
			l12.8,7.9l-15.6,3.5L703.5,10.7z M751.7,33.9l-11.4-2.7l7.9-12.6L751.7,33.9z M770.1,25.1l-5.8-27.4l4-16.6l0,0
			c0.1-0.6,0-1.3-0.4-1.8l-11.2-13.5c-0.5-0.6-1.2-0.8-2-0.7l-27.4,5.8l-16.9-4.3v0c-0.6-0.2-1.3,0-1.8,0.4l-13.5,11.2
			c-0.6,0.5-0.8,1.2-0.7,2l5.7,27.4l-4,16.9h0c-0.1,0.6,0,1.3,0.4,1.8l11.2,13.5c0.4,0.5,1,0.7,1.6,0.7c0.1,0,0.3,0,0.4,0l27.4-5.7
			l16.9,4v0c0.2,0,0.3,0.1,0.5,0.1c0.5,0,0.9-0.2,1.3-0.5l13.5-11.2C769.9,26.6,770.2,25.8,770.1,25.1"/>
	</g>
</g>
<rect x="0.2" y="-0.3" class="st0" width="100" height="100"/>
<g>
	<g>
		<path class="st1" d="M72.4,78.3l-9.2-40.4l13.5,8.2l5.1,24.4L72.4,78.3z M29.2,81.3l-7.8-9.5l40.7-9.2l-8.5,13.5L29.2,81.3z
			 M27.9,20.8l9.4,40.7L23.5,53l-5.1-24.4L27.9,20.8z M71,18.1l7.8,9.5l-40.6,9.2l8.4-13.5L71,18.1z M77.2,41.9l-12-7.3l14.6-3.3
			L77.2,41.9z M31.7,20l10.8,2.8L35,34.6L31.7,20z M41.6,63.3l-5.1-22.2l22.3-5l5.1,22.2L41.6,63.3z M23.1,57.2l12.1,7.5l-14.7,3.3
			L23.1,57.2z M68.6,79.2l-10.8-2.6l7.5-11.9L68.6,79.2z M86,70.8l-5.4-25.9l3.8-15.7l0,0c0.1-0.6,0-1.2-0.3-1.7L73.4,14.8
			c-0.5-0.5-1.2-0.8-1.9-0.7l-25.9,5.5l-16-4.1v0c-0.6-0.1-1.2,0-1.7,0.3L15.1,26.4c-0.5,0.5-0.8,1.2-0.7,1.9l5.4,25.9l-3.8,16h0
			c-0.1,0.6,0,1.2,0.3,1.7L27,84.6c0.4,0.4,0.9,0.7,1.5,0.7c0.1,0,0.3,0,0.4,0l25.9-5.4l16,3.8v0c0.1,0,0.3,0.1,0.4,0.1
			c0.4,0,0.9-0.1,1.2-0.4l12.8-10.6C85.9,72.3,86.1,71.5,86,70.8"/>
	</g>
</g>
<g>
	<path class="st2" d="M131.2,33H127v-2.6h11.2V33h-4.1v11.4h-3V33z"/>
	<path class="st2" d="M153.3,42H147l-0.9,2.4h-3.3l5.4-14.1h3.8l5.4,14.1h-3.3L153.3,42z M147.8,39.4h4.7l-2.3-6.4L147.8,39.4z"/>
	<path class="st2" d="M167.2,35v9.4h-3V30.4h3.1l6.5,9.1v-9.1h3v14.1h-2.9L167.2,35z"/>
	<path class="st2" d="M185,30.4h5.5c4.4,0,7.5,2.8,7.5,7s-3.1,7-7.5,7H185V30.4z M190.6,41.8c2.8,0,4.4-2,4.4-4.4
		c0-2.5-1.5-4.4-4.4-4.4H188v8.8H190.6z"/>
	<path class="st2" d="M205.6,30.4h9.9V33h-7V36h6.8v2.6h-6.8v3.3h7v2.6h-9.9V30.4z"/>
	<path class="st2" d="M235.6,34.3l-4,10.1h-1.3l-4-10.1v10.1h-3V30.4h4.2l3.4,8.8l3.4-8.8h4.2v14.1h-3V34.3z"/>
	<path class="st2" d="M133.1,63.8h-2.2v5h-3V54.7h6.6c2.9,0,4.7,1.9,4.7,4.5c0,2.5-1.6,3.8-3.1,4.2l3.2,5.4h-3.4L133.1,63.8z
		 M134,57.3h-3.1v3.9h3.1c1.2,0,2.1-0.8,2.1-1.9C136.2,58.1,135.2,57.3,134,57.3z"/>
	<path class="st2" d="M146.9,54.7h9.9v2.6h-7v3.1h6.8v2.6h-6.8v3.3h7v2.6h-9.9V54.7z"/>
	<path class="st2" d="M165.4,64.5c1,1,2.5,1.9,4.5,1.9c1.6,0,2.4-0.8,2.4-1.6c0-1.1-1.2-1.4-2.8-1.8c-2.3-0.5-5.2-1.2-5.2-4.3
		c0-2.3,2-4.2,5.3-4.2c2.2,0,4.1,0.7,5.5,2l-1.7,2.2c-1.1-1.1-2.7-1.5-4-1.5c-1.3,0-2.1,0.6-2.1,1.4c0,0.9,1.2,1.2,2.8,1.6
		c2.3,0.5,5.3,1.2,5.3,4.3c0,2.6-1.8,4.5-5.6,4.5c-2.7,0-4.6-0.9-6-2.2L165.4,64.5z"/>
	<path class="st2" d="M182.8,54.7h9.9v2.6h-7v3.1h6.8v2.6h-6.8v3.3h7v2.6h-9.9V54.7z"/>
	<path class="st2" d="M209.5,66.4h-6.3l-0.9,2.4h-3.3l5.4-14.1h3.8l5.4,14.1h-3.3L209.5,66.4z M204,63.8h4.7l-2.3-6.4L204,63.8z"/>
	<path class="st2" d="M225.6,63.8h-2.2v5h-3V54.7h6.6c2.9,0,4.7,1.9,4.7,4.5c0,2.5-1.6,3.8-3.1,4.2l3.2,5.4h-3.4L225.6,63.8z
		 M226.6,57.3h-3.1v3.9h3.1c1.2,0,2.1-0.8,2.1-1.9C228.7,58.1,227.8,57.3,226.6,57.3z"/>
	<path class="st2" d="M238.8,61.8c0-4.3,3.3-7.3,7.4-7.3c3.2,0,5,1.7,6,3.4l-2.6,1.3c-0.6-1.1-1.9-2-3.4-2c-2.4,0-4.3,2-4.3,4.6
		s1.9,4.6,4.3,4.6c1.6,0,2.8-0.9,3.4-2l2.6,1.2c-1,1.7-2.8,3.5-6,3.5C242.1,69,238.8,66.1,238.8,61.8z"/>
	<path class="st2" d="M269,62.9h-6.6v5.9h-3V54.7h3v5.5h6.6v-5.5h3v14.1h-3V62.9z"/>
</g>
</svg>
