<svg xmlns="http://www.w3.org/2000/svg" width="73.23mm" height="29.76mm" viewBox="0 0 207.59 84.35">
  <title>Artboard 1MOOC</title>
  <polygon points="105.23 26.97 101.22 26.97 101.22 24.81 111.73 24.81 111.73 26.97 107.65 26.97 107.65 39.01 105.23 39.01 105.23 26.97"/>
  <path d="M124.73,33.87l-2.16-6.16h0l-2.14,6.16Zm-3.36-9.06h2.36L129.05,39h-2.52L125.45,36h-5.8L118.59,39h-2.52Z"/>
  <polygon points="135.96 24.81 138.36 24.81 145.3 35.01 145.34 35.01 145.34 24.81 147.74 24.81 147.74 39.01 145.28 39.01 138.42 28.99 138.38 28.99 138.38 39.01 135.96 39.01 135.96 24.81"/>
  <path d="M160.38,36.85a4.72,4.72,0,0,0,5-4.92,4.71,4.71,0,0,0-4.84-5h-2.14v9.88Zm-4.44-12h4.52c4.5,0,7.37,2.92,7.37,7.12S165.08,39,160.52,39h-4.58Z"/>
  <polygon points="174.97 24.81 183.91 24.81 183.91 26.97 177.39 26.97 177.39 30.89 182.65 30.89 182.65 33.05 177.39 33.05 177.39 36.85 184.33 36.85 184.33 39.01 174.97 39.01 174.97 24.81"/>
  <polygon points="204.06 24.81 199.38 33.31 199.34 33.31 194.67 24.81 192.25 24.81 192.25 39.01 194.67 39.01 194.67 29.51 194.69 29.51 198.56 36.27 200.15 36.27 204.02 29.51 204.06 29.51 204.06 39.01 206.48 39.01 206.48 24.81 204.06 24.81"/>
  <g>
    <path d="M65,73.29,54.83,28.66l14.92,9.06,5.63,27ZM17.27,76.6,8.65,66.11l45-10.17L44.22,70.86ZM15.83,9.77l10.39,45L11,45.34l-5.64-27Zm47.62-3,8.61,10.5L27.21,27.44l9.28-14.91Zm6.85,26.3L57,25l16.13-3.64ZM20,8.88,32,12,23.68,25ZM31,56.72,25.33,32.19,50,26.67,55.6,51.2ZM10.53,50,23.9,58.27,7.66,61.91ZM60.8,74.29,48.86,71.41l8.29-13.14ZM80,65l-6-28.61L78.25,19a2.74,2.74,0,0,0-.33-1.87L66.1,3.14A2.52,2.52,0,0,0,64,2.36L35.39,8.44,17.71,3.91a2.77,2.77,0,0,0-1.88.33L1.69,16a2.53,2.53,0,0,0-.77,2.1l6,28.62L2.69,64.34A2.71,2.71,0,0,0,3,66.22l11.82,14A2.34,2.34,0,0,0,16.5,81h.44l28.61-6,17.68,4.2c.11,0,.33.11.44.11A2,2,0,0,0,65,78.93L79.14,67.21A2.26,2.26,0,0,0,80,65"/>
    <path d="M108.74,51.88c1.86,0,2.67-1,2.67-2.25s-.93-2.2-2.48-2.2h-2.42v4.45Zm-3.61-5.7h4c2.59,0,3.71,1.49,3.71,3.48A3.15,3.15,0,0,1,110,53l3.1,4.41h-1.64l-3-4.29h-2v4.29h-1.38Z"/>
  </g>
  <polygon points="118.56 46.18 125.44 46.18 125.44 47.43 119.94 47.43 119.94 51.2 124.44 51.2 124.44 52.44 119.94 52.44 119.94 56.16 125.77 56.16 125.77 57.41 118.56 57.41 118.56 46.18"/>
  <path d="M130.49,55.76l.89-1a4,4,0,0,0,3.09,1.51c1.38,0,2.31-.63,2.31-1.72,0-1.25-1-1.58-2.51-2.15-1.66-.62-3.35-1.33-3.35-3.3a3.18,3.18,0,0,1,3.43-3,5.62,5.62,0,0,1,3.54,1.32l-.84,1.09a4.38,4.38,0,0,0-2.7-1.14,1.79,1.79,0,0,0-2,1.64c0,1.08,1,1.47,2.4,2,1.88.74,3.48,1.25,3.48,3.35s-1.8,3.16-3.76,3.16a5.34,5.34,0,0,1-4-1.74"/>
  <polygon points="143.67 46.18 150.54 46.18 150.54 47.43 145.04 47.43 145.04 51.2 149.55 51.2 149.55 52.44 145.04 52.44 145.04 56.16 150.88 56.16 150.88 57.41 143.67 57.41 143.67 46.18"/>
  <path d="M162.35,53.47l-2.08-5.63h0l-2,5.63Zm-2.77-7.29H161l4.27,11.23h-1.44l-1-2.74h-5l-1,2.74h-1.43Z"/>
  <g>
    <path d="M173.89,51.88c1.87,0,2.67-1,2.67-2.25s-.93-2.2-2.48-2.2h-2.42v4.45Zm-3.6-5.7h4c2.6,0,3.72,1.49,3.72,3.48a3.16,3.16,0,0,1-2.8,3.34l3.1,4.41h-1.65l-3-4.29h-2v4.29h-1.37Z"/>
    <path d="M182.85,51.83c0-3.18,2-5.76,5.58-5.76a5.61,5.61,0,0,1,4.38,2.15l-1,.86a4.17,4.17,0,0,0-3.35-1.7c-2.55,0-4.14,1.87-4.14,4.45a4.06,4.06,0,0,0,4.16,4.36,4.19,4.19,0,0,0,3.35-1.69l1,.87a5.45,5.45,0,0,1-4.38,2.12,5.34,5.34,0,0,1-5.6-5.66"/>
  </g>
  <polygon points="205.14 46.44 205.14 51.59 199.41 51.59 199.41 46.44 198.07 46.44 198.07 57.41 199.41 57.41 199.41 52.81 205.14 52.81 205.14 57.41 206.48 57.41 206.48 46.44 205.14 46.44"/>
</svg>
